<?xml version="1.0" encoding="UTF-8"?>
<!DOCTYPE svg PUBLIC "-//W3C//DTD SVG 1.1//EN" "http://www.w3.org/Graphics/SVG/1.1/DTD/svg11.dtd">
<svg xmlns="http://www.w3.org/2000/svg" version="1.1" width="200px" height="200px" style="shape-rendering:geometricPrecision; text-rendering:geometricPrecision; image-rendering:optimizeQuality; fill-rule:evenodd; clip-rule:evenodd" xmlns:xlink="http://www.w3.org/1999/xlink">
<g><path style="opacity:0.932" fill="gray" d="M 93.5,9.5 C 97.8394,8.84614 101.673,9.84614 105,12.5C 106.388,17.3722 106.888,22.3722 106.5,27.5C 113.536,28.2592 120.203,30.2592 126.5,33.5C 127.521,34.0016 127.688,34.6683 127,35.5C 122.652,40.0153 118.152,44.3487 113.5,48.5C 86.4102,40.908 67.2435,49.908 56,75.5C 54.0833,86.7383 53.0833,98.0716 53,109.5C 47.652,115.015 42.152,120.348 36.5,125.5C 35.3338,110.178 35.1671,94.8442 36,79.5C 42.0593,50.6073 59.5593,33.274 88.5,27.5C 88.3345,23.4862 88.5012,19.4862 89,15.5C 89.8041,12.8541 91.3041,10.8541 93.5,9.5 Z"/></g>
<g><path style="opacity:0.942" fill="gray" d="M 175.5,9.5 C 176.552,9.35055 177.552,9.51722 178.5,10C 182,13.5 185.5,17 189,20.5C 189.667,21.5 189.667,22.5 189,23.5C 176.833,35.6667 164.667,47.8333 152.5,60C 155.656,65.7997 157.822,71.9664 159,78.5C 159.333,95.1667 159.667,111.833 160,128.5C 167.872,134.555 170.205,142.222 167,151.5C 164.736,154.433 161.902,156.6 158.5,158C 123.5,158.333 88.5,158.667 53.5,159C 43.5,169 33.5,179 23.5,189C 22.8333,189.667 22.1667,189.667 21.5,189C 17.6667,185.167 13.8333,181.333 10,177.5C 9.33333,176.833 9.33333,176.167 10,175.5C 65.368,120.299 120.535,64.9654 175.5,9.5 Z M 137.5,74.5 C 138.793,75.842 139.626,77.5087 140,79.5C 141.213,99.1395 141.88,118.806 142,138.5C 142.75,139.126 143.584,139.626 144.5,140C 120.5,140.667 96.5,140.667 72.5,140C 94.3683,118.299 116.035,96.4653 137.5,74.5 Z"/></g>
<g><path style="opacity:0.895" fill="gray" d="M 79.5,167.5 C 91.5,167.5 103.5,167.5 115.5,167.5C 113.78,182.698 105.447,188.531 90.5,185C 83.1644,181.5 79.4978,175.666 79.5,167.5 Z"/></g>
</svg>
